<svg width="612" height="534" viewBox="0 0 612 534" fill="none" xmlns="http://www.w3.org/2000/svg">
<rect width="109.235" height="109.235" transform="matrix(0.715145 -0.698976 0.715145 0.698976 390 152.352)" fill="#BFDCE5" fill-opacity="0.46"/>
<rect width="109.235" height="109.235" transform="matrix(0.715145 -0.698976 0.715145 0.698976 156 229.352)" fill="#BFDCE5" fill-opacity="0.29"/>
<rect width="109.235" height="109.235" transform="matrix(0.715145 -0.698976 0.715145 0.698976 156 76.3524)" fill="#BFDCE5" fill-opacity="0.21"/>
<rect width="109.235" height="109.235" transform="matrix(0.715145 -0.698976 0.715145 0.698976 0 76.3524)" fill="#BFDCE5" fill-opacity="0.51"/>
<rect width="109.235" height="109.235" transform="matrix(0.715145 -0.698976 0.715145 0.698976 390 305.352)" fill="#BFDCE5"/>
<rect width="109.235" height="109.235" transform="matrix(0.715145 -0.698976 0.715145 0.698976 468 382.352)" fill="#BFDCE5" fill-opacity="0.1"/>
<rect width="109.235" height="109.235" transform="matrix(0.715145 -0.698976 0.715145 0.698976 390 457.352)" fill="#BFDCE5"/>
<rect width="109.235" height="109.235" transform="matrix(0.715145 -0.698976 0.715145 0.698976 234 1.35248)" fill="#BFDCE5"/>
<rect width="109.235" height="109.235" transform="matrix(0.715145 -0.698976 0.715145 0.698976 468 228.352)" fill="#BFDCE5" fill-opacity="0.23"/>
<rect width="109.235" height="109.235" transform="matrix(0.715145 -0.698976 0.715145 0.698976 312 76.3524)" fill="#BFDCE5" fill-opacity="0.6"/>
<rect width="109.235" height="109.235" transform="matrix(0.715145 -0.698976 0.715145 0.698976 312 228.352)" fill="#BFDCE5" fill-opacity="0.7"/>
<rect width="92.1934" height="109.235" transform="matrix(0.715145 -0.698976 0.715145 0.698976 468 76.4409)" fill="#BFDCE5" fill-opacity="0.81"/>
<rect width="109.235" height="109.235" transform="matrix(0.715145 -0.698976 0.715145 0.698976 546 304.352)" fill="#BFDCE5" fill-opacity="0.83"/>
</svg>
